<svg xmlns="http://www.w3.org/2000/svg" viewBox="0 0 133.51 171.2"><defs><style>.cls-1{fill:#063;}</style></defs><g id="Lag_2" data-name="Lag 2"><g id="Layer_1" data-name="Layer 1"><path class="cls-1" d="M0,67.53A66.69,66.69,0,0,1,7.51,36.14,52.92,52.92,0,0,1,19,21.23a42.38,42.38,0,0,1,12-7.74,4.09,4.09,0,0,0,2.37-2.17A10.16,10.16,0,0,1,36.77,7.6a25.31,25.31,0,0,1,7-3.66A62.24,62.24,0,0,1,64.13,0a80.84,80.84,0,0,1,10.78.3,74.55,74.55,0,0,1,21.8,6.25,65.52,65.52,0,0,1,24.67,19.33,57.39,57.39,0,0,1,11.27,26.13c3.26,18.56-3.1,39.5-13.6,52.62q-2.91,3.64-6.08,7.09A59.53,59.53,0,0,1,97.7,123.63a73.54,73.54,0,0,1-18.59,7.57,71,71,0,0,1-24.52,1.61,62.25,62.25,0,0,1-28.44-10.69,44,44,0,0,1-7.94-6.91c-7.9-8.86-13.61-18.9-16.28-30.56A80.87,80.87,0,0,1,0,67.53Zm50.74-54.4a8.49,8.49,0,0,1-3.14,4.29c-1.22.89-2.44,1.79-3.69,2.66-3,2-6,4-8.88,6.11A47.55,47.55,0,0,0,18,48.82a56,56,0,0,0-3,23.58A54.38,54.38,0,0,0,26.16,102,38.71,38.71,0,0,0,40.25,113.6a63.59,63.59,0,0,0,6,2.53,49.73,49.73,0,0,0,26.7,1.72,56.69,56.69,0,0,0,30.57-16.36,54.78,54.78,0,0,0,11.28-16c4.7-10.71,6.46-21.85,4.44-33.46a40.38,40.38,0,0,0-7-17.17,59,59,0,0,0-10.26-11,58.37,58.37,0,0,0-25-12,54.38,54.38,0,0,0-13.6-.8A55,55,0,0,0,50.74,13.13Z"/><path class="cls-1" d="M46.58,156c-.62.08-1.24.17-1.86.24L29.49,158a48.6,48.6,0,0,1-9.57-.23,7.5,7.5,0,0,1-1.86-.43,3.75,3.75,0,0,1,.06-7.09,11,11,0,0,1,2.35-.46,29.29,29.29,0,0,1,3.11-.1,64.46,64.46,0,0,0,14.25-1.61c11.79-2.49,23.63-4.75,35.54-6.62q12.66-2,25.43-3.1c2.46-.22,4.94-.3,7.42-.37a12.38,12.38,0,0,1,2.85.23,5.48,5.48,0,0,1,2.53,9.5,10,10,0,0,1-2.22,1.39,19.75,19.75,0,0,1-2.68,1q-10.38,3.3-20.77,6.57l-1.63.53c.13.78.79.84,1.15,1.18s.94.86,1.37,1.33.68.86,1,1.3a7.89,7.89,0,0,1-4.69,4.55,45.26,45.26,0,0,1-11.36,2.78c-4.92.54-9.86,1-14.79,1.44-4.21.4-8.42.83-12.63,1.22a25.39,25.39,0,0,1-3.59.17,10.39,10.39,0,0,1-3-.54,5.85,5.85,0,0,1-1.43-10.34,13.7,13.7,0,0,1,3-1.45c1.87-.7,3.78-1.28,5.66-1.94.57-.2,1.12-.46,1.67-.7Z"/><path class="cls-1" d="M73.18,84.77A15,15,0,0,0,77,85c1.19,0,2.39-.15,3.58-.16a15.11,15.11,0,0,1,2.86.17A5.7,5.7,0,0,1,84.3,95.9a7.27,7.27,0,0,1-2.34.43c-8.78,0-17.57.08-26.35,0a34.5,34.5,0,0,1-5.67-.84A5.81,5.81,0,0,1,47,94a4.66,4.66,0,0,1,.44-7.44,6.93,6.93,0,0,1,2.61-1.1c2-.38,4.11-.58,6.16-.84.55-.07,1.09-.11,1.69-.17.1-.63.24-1.17.27-1.72.09-1.28.15-2.55.17-3.83q.22-12.57.4-25.14c0-.54-.08-1.08-.13-1.78-.74,0-1.36,0-2,0a6.35,6.35,0,0,1-5.87-3.49,6.52,6.52,0,0,1,.48-7,13.44,13.44,0,0,1,1.54-1.83c2.8-3,5.64-5.88,8.43-8.84a7,7,0,0,1,7.38-2.23,6.85,6.85,0,0,1,5.07,5.79,23.57,23.57,0,0,1,.38,4.28c0,2.71-.15,5.43-.18,8.14q-.21,15.33-.38,30.65c0,1.28-.09,2.56-.15,3.83S73.24,83.44,73.18,84.77Z"/></g></g></svg>